/* XPM */
static char *dummy[]={
"32 32 4 1",
". c None",
"a c #000000",
"b c #00ff00",
"# c #ff0000",
"......###......aa......###......",
".....#...##....aa....##...#.....",
"....#......##########......#....",
"....#..........aa..........#....",
"....#..........aa..........#....",
"....#..........aa..........#....",
"....#..........aa..........#....",
"....#..........aa..........#....",
"....#..........aa..........#....",
"....#..........aa..........#....",
"....#..........aa..........#b...",
"....#..........aa..........#bb..",
"....#bbbbbbbbbbbbbbbbbbbbbbbbbb.",
"...b#..........aa..........#bb..",
"..bb#..........aa..........#b...",
".bbbbbbbbbbbbbbbbbbbbbbbbbb#....",
"..bb#..........aa..........#....",
"...b#..........aa..........#....",
"....#..........aa..........#....",
"....#..........aa..........#....",
"....#..........aa..........#....",
"....#..........aa..........#....",
"....#..........aa..........#....",
"....#..........aa..........#....",
"....#..........aa..........#....",
"....#..........aa..........#....",
"....#..........aa..........#....",
"...#...........aa...........#...",
"..#............aa............#..",
"##.............aa.............##",
"aaaaaaaaaaaaaaaaaaaaaaaaaaaaaaaa",
"aaaaaaaaaaaaaaaaaaaaaaaaaaaaaaaa"};
