/* XPM */
static char *dummy[]={
"32 32 24 1",
"# c #000000",
"a c #333333",
"e c #336633",
"f c #339900",
"d c #666633",
"l c #666666",
"k c #669900",
"c c #669933",
"j c #669966",
"v c #66cc33",
"q c #999933",
"g c #999966",
"b c #999999",
"i c #99cc00",
"h c #99cc33",
"n c #99cc66",
"m c #99cc99",
"s c #cccc33",
"r c #cccc66",
"u c #cccc99",
"p c #cccccc",
"t c #ccffcc",
"o c #ffffcc",
". c #ffffff",
"................................",
".##############################.",
".#............................#.",
".#.##########################.#.",
".#.#aaaaaaaaaaaaaaaaaaaaaaab#.#.",
".#.#aaaaaaaaaaaaaaaaaaaaaab.#.#.",
".#.#aaaaaaaaaaaaaaaaaaaaab..#.#.",
".#.#aaaaaaacdaaaaaaaaaaab...#.#.",
".#.#aaaaaaeffeaaaaaaaaab....#.#.",
".#.#aaaaeecghfeeaaaaaab.....#.#.",
".#.#aaaeechhhhceeaaaab......#.#.",
".#.#aaaechhiihhceeaaj.......#.#.",
".#.#aaaekiiiiihhcealmno.....#.#.",
".#.#aaaeekiiiiihhfdmckp.....#.#.",
".#.#aaaaeekiiiiihhcchqp.....#.#.",
".#.#aaaaaeekiiiiihhrrhp.....#.#.",
".#.#aaaaaaeekiiiiisrhht.....#.#.",
".#.#aaaaaaaeekiiiiiihcp.....#.#.",
".#.#aaaaaaaaeckiiiiihqp.....#.#.",
".#.#aaaaaaaajmkiiiiihht.....#.#.",
".#.#aaaaaaajuciiiiiihqp.....#.#.",
".#.#aaaaaab.nkvhhhhhcm......#.#.",
".#.#aaaaab..opppppppp.......#.#.",
".#.#aaaab...................#.#.",
".#.#aaab....................#.#.",
".#.#aab.....................#.#.",
".#.#ab......................#.#.",
".#.#b.......................#.#.",
".#.##########################.#.",
".#............................#.",
".##############################.",
"................................"};
