/* XPM */
static char *dummy[]={
"32 32 4 1",
"# c #000000",
"b c #008000",
"a c #ff0000",
". c #ffffff",
"................................",
".##############################.",
".#.............aa.............#.",
".#.############aa############.#.",
".#.#...........aa...........#.#.",
".#.#...........aa...........#.#.",
".#.#..bbbbbbbbbaabbbbbbbbb..#.#.",
".#.#..bbbbbbbbbaabbbbbbbbb..#.#.",
".#.#..bbbbbbbbbaabbbbbbbbb..#.#.",
".#.#..bbbbabbbbaabbbbbbbbb..#.#.",
".#.#..bbbaaabbbaabbbbbbbbb..#.#.",
".#.#..bbbbabbbbaabbbbbbbbb..#.#.",
".#.#..bbbbbbbbbaabbbbbbbbb..#.#.",
".#.#..bbbbbbbbbaabbbbbbbbb..#.#.",
".#.#..bbbbbbbbbaabbbbbbbbb..#.#.",
".#aaaaaaaaaaaaaaaaaaaaaaaaaaaa#.",
".#aaaaaaaaaaaaaaaaaaaaaaaaaaaa#.",
".#.#..bbbbbbbbbaabbbbbbbbb..#.#.",
".#.#..bbbbbbbbbaabbbbbbbbb..#.#.",
".#.#..bbbbbbbbbaabbbbbbbbb..#.#.",
".#.#..bbbbbbbbbaabbbbabbbb..#.#.",
".#.#..bbbbbbbbbaabbbaaabbb..#.#.",
".#.#..bbbbbbbbbaabbbbabbbb..#.#.",
".#.#..bbbbbbbbbaabbbbbbbbb..#.#.",
".#.#..bbbbbbbbbaabbbbbbbbb..#.#.",
".#.#..bbbbbbbbbaabbbbbbbbb..#.#.",
".#.#...........aa...........#.#.",
".#.#...........aa...........#.#.",
".#.############aa############.#.",
".#.............aa.............#.",
".##############################.",
"................................"};
